<?xml version="1.0" encoding="utf-8" standalone="no"?>
<!DOCTYPE svg PUBLIC "-//W3C//DTD SVG 1.1//EN"
  "http://www.w3.org/Graphics/SVG/1.1/DTD/svg11.dtd">
<svg xmlns:xlink="http://www.w3.org/1999/xlink" width="314.372001pt" height="242.666213pt" viewBox="0 0 314.372001 242.666213" xmlns="http://www.w3.org/2000/svg" version="1.1">
 <metadata>
  <rdf:RDF xmlns:dc="http://purl.org/dc/elements/1.1/" xmlns:cc="http://creativecommons.org/ns#" xmlns:rdf="http://www.w3.org/1999/02/22-rdf-syntax-ns#">
   <cc:Work>
    <dc:type rdf:resource="http://purl.org/dc/dcmitype/StillImage"/>
    <dc:date>2023-08-05T19:39:25.034691</dc:date>
    <dc:format>image/svg+xml</dc:format>
    <dc:creator>
     <cc:Agent>
      <dc:title>Matplotlib v3.5.1, https://matplotlib.org/</dc:title>
     </cc:Agent>
    </dc:creator>
   </cc:Work>
  </rdf:RDF>
 </metadata>
 <defs>
  <style type="text/css">*{stroke-linejoin: round; stroke-linecap: butt}</style>
 </defs>
 <g id="figure_1">
  <g id="patch_1">
   <path d="M 0 242.666213 
L 314.372001 242.666213 
L 314.372001 0 
L 0 0 
z
" style="fill: #ffffff"/>
  </g>
  <g id="axes_1">
   <g id="patch_2">
    <path d="M 38.86565 194.092096 
L 307.172001 194.092096 
L 307.172001 29.339474 
L 38.86565 29.339474 
z
" style="fill: #ffffff"/>
   </g>
   <g id="matplotlib.axis_1">
    <g id="xtick_1">
     <g id="line2d_1">
      <defs>
       <path id="mcdaecaf87f" d="M 0 0 
L 0 -3.5 
" style="stroke: #000000; stroke-width: 0.8"/>
      </defs>
      <g>
       <use xlink:href="#mcdaecaf87f" x="121.212822" y="194.092096" style="stroke: #000000; stroke-width: 0.8"/>
      </g>
     </g>
     <g id="text_1">
      <!-- $\mathdefault{10^{-1}}$ -->
      <g transform="translate(105.034043 210.045396)scale(0.18 -0.18)">
       <defs>
        <path id="CMR17-31" d="M 1702 4083 
C 1702 4217 1696 4224 1606 4224 
C 1357 3927 979 3833 621 3820 
C 602 3820 570 3820 563 3808 
C 557 3795 557 3782 557 3648 
C 755 3648 1088 3686 1344 3839 
L 1344 467 
C 1344 243 1331 166 781 166 
L 589 166 
L 589 0 
C 896 6 1216 12 1523 12 
C 1830 12 2150 6 2458 0 
L 2458 166 
L 2266 166 
C 1715 166 1702 236 1702 467 
L 1702 4083 
z
" transform="scale(0.015625)"/>
        <path id="CMR17-30" d="M 2688 2038 
C 2688 2430 2682 3099 2413 3613 
C 2176 4063 1798 4224 1466 4224 
C 1158 4224 768 4082 525 3620 
C 269 3137 243 2539 243 2038 
C 243 1671 250 1112 448 623 
C 723 -39 1216 -128 1466 -128 
C 1760 -128 2208 -7 2470 604 
C 2662 1048 2688 1568 2688 2038 
z
M 1466 -26 
C 1056 -26 813 328 723 816 
C 653 1196 653 1749 653 2109 
C 653 2604 653 3015 736 3407 
C 858 3954 1216 4121 1466 4121 
C 1728 4121 2067 3947 2189 3420 
C 2272 3054 2278 2623 2278 2109 
C 2278 1691 2278 1176 2202 797 
C 2067 96 1690 -26 1466 -26 
z
" transform="scale(0.015625)"/>
        <path id="CMSY10-0" d="M 4218 1472 
C 4326 1472 4442 1472 4442 1600 
C 4442 1728 4326 1728 4218 1728 
L 755 1728 
C 646 1728 531 1728 531 1600 
C 531 1472 646 1472 755 1472 
L 4218 1472 
z
" transform="scale(0.015625)"/>
       </defs>
       <use xlink:href="#CMR17-31" transform="scale(0.996264)"/>
       <use xlink:href="#CMR17-30" transform="translate(45.690477 0)scale(0.996264)"/>
       <use xlink:href="#CMSY10-0" transform="translate(91.380954 36.153639)scale(0.697382)"/>
       <use xlink:href="#CMR17-31" transform="translate(145.621947 36.153639)scale(0.697382)"/>
      </g>
     </g>
    </g>
    <g id="xtick_2">
     <g id="line2d_2">
      <g>
       <use xlink:href="#mcdaecaf87f" x="261.515678" y="194.092096" style="stroke: #000000; stroke-width: 0.8"/>
      </g>
     </g>
     <g id="text_2">
      <!-- $\mathdefault{10^{1}}$ -->
      <g transform="translate(250.218587 210.045396)scale(0.18 -0.18)">
       <use xlink:href="#CMR17-31" transform="scale(0.996264)"/>
       <use xlink:href="#CMR17-30" transform="translate(45.690477 0)scale(0.996264)"/>
       <use xlink:href="#CMR17-31" transform="translate(91.380954 36.153639)scale(0.697382)"/>
      </g>
     </g>
    </g>
    <g id="text_3">
     <!-- $t/\tau_D$ -->
     <g transform="translate(156.543362 230.983025)scale(0.18 -0.18)">
      <defs>
       <path id="CMMI12-74" d="M 1286 2566 
L 1875 2566 
C 1997 2566 2061 2566 2061 2681 
C 2061 2752 2022 2752 1894 2752 
L 1331 2752 
L 1568 3664 
C 1594 3752 1594 3764 1594 3808 
C 1594 3910 1510 3968 1427 3968 
C 1376 3968 1229 3948 1178 3746 
L 928 2752 
L 326 2752 
C 198 2752 141 2752 141 2630 
C 141 2566 186 2566 307 2566 
L 877 2566 
L 454 881 
C 403 657 384 593 384 510 
C 384 210 595 -64 954 -64 
C 1600 -64 1946 868 1946 913 
C 1946 951 1920 970 1882 970 
C 1869 970 1843 970 1830 944 
C 1824 938 1818 932 1773 830 
C 1638 510 1344 64 973 64 
C 781 64 768 223 768 364 
C 768 370 768 491 787 568 
L 1286 2566 
z
" transform="scale(0.015625)"/>
       <path id="CMMI12-3d" d="M 2746 4563 
C 2746 4569 2784 4665 2784 4678 
C 2784 4755 2720 4800 2669 4800 
C 2637 4800 2579 4800 2528 4659 
L 384 -1364 
C 384 -1370 346 -1466 346 -1479 
C 346 -1556 410 -1600 461 -1600 
C 499 -1600 557 -1594 602 -1460 
L 2746 4563 
z
" transform="scale(0.015625)"/>
       <path id="CMMI12-1c" d="M 1837 2406 
L 2899 2406 
C 2982 2406 3194 2406 3194 2611 
C 3194 2752 3072 2752 2957 2752 
L 1197 2752 
C 1050 2752 832 2752 538 2438 
C 371 2253 166 1916 166 1878 
C 166 1839 198 1827 237 1827 
C 282 1827 288 1846 320 1884 
C 653 2406 986 2406 1146 2406 
L 1677 2406 
L 1011 223 
C 979 127 979 114 979 95 
C 979 25 1024 -64 1152 -64 
C 1350 -64 1382 108 1402 204 
L 1837 2406 
z
" transform="scale(0.015625)"/>
       <path id="CMMI12-44" d="M 1005 472 
C 947 249 934 185 486 185 
C 365 185 301 185 301 70 
C 301 0 339 0 467 0 
L 2496 0 
C 3789 0 5050 1332 5050 2752 
C 5050 3669 4499 4352 3584 4352 
L 1530 4352 
C 1408 4352 1350 4352 1350 4230 
C 1350 4166 1408 4166 1504 4166 
C 1894 4166 1894 4115 1894 4045 
C 1894 4032 1894 3994 1869 3898 
L 1005 472 
z
M 2355 3917 
C 2413 4153 2438 4166 2688 4166 
L 3392 4166 
C 3994 4166 4544 3841 4544 2962 
C 4544 2644 4416 1535 3795 835 
C 3616 625 3130 185 2394 185 
L 1664 185 
C 1574 185 1562 185 1523 191 
C 1453 198 1446 211 1446 262 
C 1446 306 1459 344 1472 402 
L 2355 3917 
z
" transform="scale(0.015625)"/>
      </defs>
      <use xlink:href="#CMMI12-74" transform="scale(0.996264)"/>
      <use xlink:href="#CMMI12-3d" transform="translate(35.22633 0)scale(0.996264)"/>
      <use xlink:href="#CMMI12-1c" transform="translate(84.001249 0)scale(0.996264)"/>
      <use xlink:href="#CMMI12-44" transform="translate(126.36509 -14.943915)scale(0.697382)"/>
     </g>
    </g>
   </g>
   <g id="matplotlib.axis_2">
    <g id="ytick_1">
     <g id="line2d_3">
      <defs>
       <path id="mefb3003a97" d="M 0 0 
L 3.5 0 
" style="stroke: #000000; stroke-width: 0.8"/>
      </defs>
      <g>
       <use xlink:href="#mefb3003a97" x="38.86565" y="186.603341" style="stroke: #000000; stroke-width: 0.8"/>
      </g>
     </g>
     <g id="text_4">
      <!-- $\mathdefault{0}$ -->
      <g transform="translate(27.141364 192.829991)scale(0.18 -0.18)">
       <use xlink:href="#CMR17-30" transform="scale(0.996264)"/>
      </g>
     </g>
    </g>
    <g id="ytick_2">
     <g id="line2d_4">
      <g>
       <use xlink:href="#mefb3003a97" x="38.86565" y="113.820682" style="stroke: #000000; stroke-width: 0.8"/>
      </g>
     </g>
     <g id="text_5">
      <!-- $\mathdefault{1}$ -->
      <g transform="translate(27.141364 120.047332)scale(0.18 -0.18)">
       <use xlink:href="#CMR17-31" transform="scale(0.996264)"/>
      </g>
     </g>
    </g>
    <g id="ytick_3">
     <g id="line2d_5">
      <g>
       <use xlink:href="#mefb3003a97" x="38.86565" y="41.038024" style="stroke: #000000; stroke-width: 0.8"/>
      </g>
     </g>
     <g id="text_6">
      <!-- $\mathdefault{2}$ -->
      <g transform="translate(27.141364 47.264674)scale(0.18 -0.18)">
       <defs>
        <path id="CMR17-32" d="M 2669 990 
L 2554 990 
C 2490 537 2438 460 2413 422 
C 2381 371 1920 371 1830 371 
L 602 371 
C 832 620 1280 1073 1824 1596 
C 2214 1966 2669 2400 2669 3033 
C 2669 3788 2067 4224 1395 4224 
C 691 4224 262 3603 262 3027 
C 262 2777 448 2745 525 2745 
C 589 2745 781 2783 781 3007 
C 781 3206 614 3264 525 3264 
C 486 3264 448 3257 422 3244 
C 544 3788 915 4057 1306 4057 
C 1862 4057 2227 3616 2227 3033 
C 2227 2477 1901 1998 1536 1583 
L 262 147 
L 262 0 
L 2515 0 
L 2669 990 
z
" transform="scale(0.015625)"/>
       </defs>
       <use xlink:href="#CMR17-32" transform="scale(0.996264)"/>
      </g>
     </g>
    </g>
    <g id="text_7">
     <!-- Memory -->
     <g transform="translate(19.6533 141.537844)rotate(-90)scale(0.18 -0.18)">
      <defs>
       <path id="CMR17-4d" d="M 1338 4249 
C 1299 4345 1293 4352 1158 4352 
L 339 4352 
L 339 4185 
C 781 4185 851 4185 851 3898 
L 851 624 
C 851 465 851 166 339 166 
L 339 0 
C 486 12 755 12 915 12 
C 1075 12 1344 12 1491 0 
L 1491 166 
C 979 166 979 465 979 624 
L 979 4159 
L 986 4159 
L 2490 102 
C 2515 38 2528 0 2579 0 
C 2630 0 2643 38 2669 102 
L 4186 4191 
L 4192 4191 
L 4192 453 
C 4192 166 4122 166 3680 166 
L 3680 0 
C 3853 12 4198 12 4384 12 
C 4570 12 4922 12 5094 0 
L 5094 166 
C 4653 166 4582 166 4582 453 
L 4582 3898 
C 4582 4185 4653 4185 5094 4185 
L 5094 4352 
L 4282 4352 
C 4147 4352 4141 4345 4102 4249 
L 2720 516 
L 1338 4249 
z
" transform="scale(0.015625)"/>
       <path id="CMR17-65" d="M 2438 1503 
C 2464 1529 2464 1542 2464 1606 
C 2464 2251 2118 2816 1389 2816 
C 710 2816 173 2175 173 1394 
C 173 554 781 -64 1459 -64 
C 2176 -64 2458 619 2458 755 
C 2458 800 2419 800 2406 800 
C 2362 800 2355 787 2330 709 
C 2189 270 1837 51 1504 51 
C 1229 51 954 206 781 490 
C 582 819 582 1200 582 1503 
L 2438 1503 
z
M 589 1600 
C 634 2511 1126 2713 1382 2713 
C 1818 2713 2112 2308 2118 1600 
L 589 1600 
z
" transform="scale(0.015625)"/>
       <path id="CMR17-6d" d="M 4326 1954 
C 4326 2276 4269 2816 3507 2816 
C 3072 2816 2771 2520 2656 2173 
L 2650 2173 
C 2573 2700 2195 2816 1837 2816 
C 1331 2816 1069 2424 973 2166 
L 966 2166 
L 966 2816 
L 211 2745 
L 211 2578 
C 589 2578 646 2540 646 2231 
L 646 443 
C 646 198 621 166 211 166 
L 211 0 
C 365 12 646 12 813 12 
C 979 12 1267 12 1421 0 
L 1421 166 
C 1011 166 986 192 986 443 
L 986 1678 
C 986 2269 1344 2713 1792 2713 
C 2266 2713 2317 2289 2317 1980 
L 2317 443 
C 2317 198 2291 166 1882 166 
L 1882 0 
C 2035 12 2317 12 2483 12 
C 2650 12 2938 12 3091 0 
L 3091 166 
C 2682 166 2656 192 2656 443 
L 2656 1678 
C 2656 2269 3014 2713 3462 2713 
C 3936 2713 3987 2289 3987 1980 
L 3987 443 
C 3987 198 3962 166 3552 166 
L 3552 0 
C 3706 12 3987 12 4154 12 
C 4320 12 4608 12 4762 0 
L 4762 166 
C 4352 166 4326 192 4326 443 
L 4326 1954 
z
" transform="scale(0.015625)"/>
       <path id="CMR17-6f" d="M 2758 1356 
C 2758 2176 2163 2816 1466 2816 
C 768 2816 173 2176 173 1356 
C 173 550 768 -64 1466 -64 
C 2163 -64 2758 550 2758 1356 
z
M 1466 51 
C 1165 51 909 230 762 480 
C 602 768 582 1126 582 1408 
C 582 1676 595 2009 762 2297 
C 890 2508 1139 2713 1466 2713 
C 1754 2713 1997 2553 2150 2329 
C 2349 2028 2349 1606 2349 1408 
C 2349 1158 2336 774 2163 467 
C 1984 172 1709 51 1466 51 
z
" transform="scale(0.015625)"/>
       <path id="CMR17-72" d="M 960 1517 
C 960 2134 1222 2713 1702 2713 
C 1747 2713 1792 2707 1837 2687 
C 1837 2687 1696 2642 1696 2475 
C 1696 2321 1818 2257 1914 2257 
C 1990 2257 2131 2302 2131 2482 
C 2131 2687 1926 2816 1709 2816 
C 1222 2816 1011 2340 947 2115 
L 941 2115 
L 941 2816 
L 198 2745 
L 198 2578 
C 576 2578 634 2540 634 2231 
L 634 443 
C 634 198 608 166 198 166 
L 198 0 
C 352 12 646 12 813 12 
C 998 12 1325 12 1498 0 
L 1498 166 
C 1037 166 960 166 960 455 
L 960 1517 
z
" transform="scale(0.015625)"/>
       <path id="CMR17-79" d="M 2496 2183 
C 2656 2579 2944 2585 3034 2585 
L 3034 2752 
C 2912 2745 2752 2739 2630 2739 
C 2496 2739 2285 2739 2157 2752 
L 2157 2585 
C 2400 2566 2406 2384 2406 2332 
C 2406 2268 2394 2235 2362 2158 
L 1664 409 
L 902 2300 
C 870 2378 870 2423 870 2430 
C 870 2572 1018 2585 1171 2585 
L 1171 2752 
C 1018 2739 742 2739 582 2739 
C 410 2739 205 2739 64 2752 
L 64 2585 
C 410 2585 448 2553 531 2345 
L 1485 -31 
C 1197 -795 1030 -1242 627 -1242 
C 557 -1242 397 -1223 282 -1106 
C 429 -1093 493 -1002 493 -892 
C 493 -782 416 -685 288 -685 
C 147 -685 77 -782 77 -899 
C 77 -1158 339 -1344 627 -1344 
C 998 -1344 1229 -983 1357 -659 
L 2496 2183 
z
" transform="scale(0.015625)"/>
      </defs>
      <use xlink:href="#CMR17-4d" transform="scale(0.996264)"/>
      <use xlink:href="#CMR17-65" transform="translate(84.686941 0)scale(0.996264)"/>
      <use xlink:href="#CMR17-6d" transform="translate(125.172601 0)scale(0.996264)"/>
      <use xlink:href="#CMR17-6f" transform="translate(202.092191 0)scale(0.996264)"/>
      <use xlink:href="#CMR17-72" transform="translate(247.782668 0)scale(0.996264)"/>
      <use xlink:href="#CMR17-79" transform="translate(283.063436 0)scale(0.996264)"/>
     </g>
    </g>
   </g>
   <g id="line2d_6">
    <path d="M -1 38.468874 
L 51.061393 38.470095 
L 72.179078 41.97275 
L 84.532131 45.628463 
L 93.296762 49.16756 
L 100.095137 52.360282 
L 114.414446 59.480865 
L 118.002868 61.421511 
L 121.212822 63.370385 
L 124.116578 65.387444 
L 126.767499 67.485773 
L 129.20611 69.65439 
L 131.463912 71.875259 
L 135.53213 76.402864 
L 139.120552 80.920588 
L 143.816965 87.368039 
L 150.323795 96.677756 
L 152.581596 100.364279 
L 156.649814 107.540787 
L 158.496827 110.203119 
L 162.676848 115.321201 
L 164.200484 117.83886 
L 173.150322 134.749148 
L 175.289191 139.233228 
L 176.80023 141.769152 
L 180.059283 146.792055 
L 182.190668 150.158861 
L 184.182644 153.175297 
L 187.46963 158.664434 
L 194.543721 168.028772 
L 196.406875 169.790784 
L 199.822683 173.034942 
L 201.396942 174.630223 
L 203.717303 176.538123 
L 206.249513 178.223279 
L 207.70926 179.110205 
L 208.587314 179.545821 
L 209.44077 180.013518 
L 210.596814 180.705537 
L 212.32922 181.338029 
L 214.113127 181.819013 
L 217.265269 182.80862 
L 218.036611 182.968153 
L 218.912502 182.942611 
L 220.23996 182.89055 
L 220.940367 182.967978 
L 223.057713 183.415733 
L 223.907005 183.482902 
L 227.367197 183.596647 
L 228.378241 183.651245 
L 229.181208 183.530124 
L 231.876124 183.88331 
L 235.013452 184.516668 
L 235.873736 184.400461 
L 236.294937 184.362716 
L 236.77909 184.283821 
L 237.18804 184.272093 
L 238.055707 184.451138 
L 238.899345 184.315737 
L 239.470012 184.239714 
L 241.475503 184.176477 
L 241.884453 184.191211 
L 242.345201 184.227916 
L 244.656034 184.098406 
L 244.972297 183.980064 
L 246.003406 184.246451 
L 246.356205 184.290862 
L 247.342258 184.272756 
L 247.679973 184.243009 
L 247.966493 184.27818 
L 248.717628 184.360387 
L 249.269071 184.21965 
L 249.6762 184.155006 
L 250.033581 184.125934 
L 251.038298 184.162641 
L 252.052529 183.953755 
L 252.342096 183.895939 
L 253.114467 184.047494 
L 254.101799 183.590526 
L 254.52629 183.767538 
L 255.83889 183.667027 
L 256.131136 183.759873 
L 256.456596 183.800177 
L 257.342824 183.877303 
L 257.586417 183.912539 
L 258.50816 183.671427 
L 259.271935 183.68722 
L 259.792184 183.850101 
L 261.362964 183.654294 
L 261.939249 183.872154 
L 262.357012 183.696184 
L 262.563765 183.606326 
L 263.146871 183.738249 
L 263.491452 183.519468 
L 263.719026 183.466002 
L 264.33623 183.653886 
L 264.640206 183.764183 
L 265.077007 183.740247 
L 265.400547 183.675684 
L 265.614347 183.687065 
L 265.773718 183.705169 
L 266.037498 183.817298 
L 266.558303 183.774717 
L 266.738502 183.79166 
L 267.146426 183.605237 
L 267.298001 183.707151 
L 267.67367 183.992359 
L 267.921567 184.046601 
L 268.580985 184.152768 
L 268.988969 184.402261 
L 269.812117 184.588741 
L 270.089296 184.627076 
L 270.386755 184.615535 
L 270.590999 184.823737 
L 270.973098 184.964253 
L 271.151265 184.803674 
L 271.482545 184.56585 
L 271.810261 184.564014 
L 272.284623 184.691973 
L 272.582689 184.727542 
L 272.835874 184.796221 
L 273.045265 184.783765 
L 273.211749 184.75791 
L 273.356679 184.788672 
L 273.787379 185.136757 
L 274.252215 184.877677 
L 274.710065 185.040297 
L 275.834986 184.696333 
L 276.494253 184.419029 
L 277.139556 184.871249 
L 277.484223 185.000735 
L 277.628187 185.060566 
L 278.214952 185.463365 
L 278.460508 185.416558 
L 278.842428 185.631645 
L 279.287701 185.572605 
L 279.558515 185.844864 
L 279.676243 185.712789 
L 279.94364 185.397937 
L 280.764444 185.328064 
L 280.958189 185.589403 
L 281.006434 185.502888 
L 281.23057 185.246678 
L 281.342023 185.342672 
L 281.532141 185.429315 
L 282.419347 184.712624 
L 282.633362 184.560164 
L 282.770153 184.568251 
L 283.041907 184.626266 
L 283.355919 184.494351 
L 283.901424 185.078331 
L 284.737356 185.681063 
L 284.935742 185.897314 
L 284.949863 185.889981 
L 285.356555 185.744297 
L 285.523266 185.801406 
L 285.977073 185.69924 
L 286.289412 185.987396 
L 286.343407 185.875203 
L 286.585205 185.538515 
L 286.745344 185.603141 
L 287.128907 185.705909 
L 287.233873 185.611242 
L 287.273142 185.668833 
L 287.364574 185.779164 
L 287.429715 185.74236 
L 287.624306 185.666761 
L 287.753346 185.659461 
L 288.251445 186.055053 
L 288.541423 185.999439 
L 288.654146 185.913989 
L 288.778906 185.913981 
L 288.952716 185.930347 
L 289.088589 185.947833 
L 289.223859 186.160301 
L 289.285147 186.062756 
L 289.443922 186.018272 
L 289.55336 186.072091 
L 289.915341 186.072554 
L 290.070874 186.039626 
L 290.261215 186.145448 
L 290.414996 186.220545 
L 290.450374 186.138929 
L 290.638366 185.768554 
L 290.696877 185.868769 
L 290.894976 185.968456 
L 291.321731 186.047067 
L 291.493052 186.102276 
L 291.504439 186.085103 
L 291.606732 185.955683 
L 291.674738 185.996247 
L 291.900332 186.036656 
L 292.046078 186.019934 
L 292.068438 186.083845 
L 292.202259 186.303785 
L 292.235622 186.277905 
L 292.357643 185.954459 
L 292.457116 185.687515 
L 292.501222 185.77523 
L 292.687965 186.039251 
L 292.709859 186.014022 
L 292.938808 185.72516 
L 292.971375 185.753198 
L 293.273666 185.789295 
L 293.348773 185.725892 
L 293.391608 185.790453 
L 293.562348 185.9525 
L 293.583623 185.918116 
L 293.795564 185.707743 
L 293.911506 185.617991 
L 293.964062 185.702126 
L 294.235898 185.861556 
L 294.464034 185.753044 
L 294.484689 185.780833 
L 294.608327 185.777309 
L 294.915244 185.469102 
L 294.966098 185.516389 
L 294.976258 185.559009 
L 294.976258 185.559009 
" clip-path="url(#p64c62412b6)" style="fill: none; stroke: #1f77b4; stroke-width: 1.5; stroke-linecap: square"/>
   </g>
   <g id="line2d_7">
    <path d="M -1 43.918267 
L 51.061393 43.92041 
L 72.179078 46.745722 
L 84.532131 49.515088 
L 93.296762 52.229617 
L 100.095137 54.890395 
L 105.649815 57.498486 
L 110.346228 60.054934 
L 114.414446 62.56076 
L 118.002868 65.016968 
L 121.212822 67.424539 
L 124.116578 69.784438 
L 129.20611 74.364972 
L 133.565875 78.765902 
L 137.379143 82.994268 
L 140.767785 87.056838 
L 145.234262 92.853975 
L 149.128881 98.313513 
L 153.650701 105.101557 
L 158.496827 112.857478 
L 164.200484 122.491767 
L 182.599619 154.123328 
L 186.412887 160.010956 
L 189.801529 164.831337 
L 192.850709 168.777932 
L 195.62229 172.00913 
L 198.162626 174.654612 
L 200.732195 177.014261 
L 203.308352 179.060303 
L 205.683558 180.669777 
L 208.063524 182.028257 
L 210.596814 183.214036 
L 213.234228 184.190934 
L 215.934648 184.953589 
L 218.912502 185.561879 
L 222.294651 186.020228 
L 226.418012 186.341331 
L 231.956617 186.529021 
L 241.826367 186.599251 
L 294.976258 186.603341 
L 294.976258 186.603341 
" clip-path="url(#p64c62412b6)" style="fill: none; stroke-dasharray: 5.55,2.4; stroke-dashoffset: 0; stroke: #ff7f0e; stroke-width: 1.5"/>
   </g>
   <g id="line2d_8">
    <path d="M 38.86565 186.603341 
L 307.172001 186.603341 
" clip-path="url(#p64c62412b6)" style="fill: none; stroke-dasharray: 5.55,2.4; stroke-dashoffset: 0; stroke: #000000; stroke-width: 1.5"/>
   </g>
   <g id="patch_3">
    <path d="M 38.86565 194.092096 
L 38.86565 29.339474 
" style="fill: none; stroke: #000000; stroke-width: 1.5; stroke-linejoin: miter; stroke-linecap: square"/>
   </g>
   <g id="patch_4">
    <path d="M 307.172001 194.092096 
L 307.172001 29.339474 
" style="fill: none; stroke: #000000; stroke-width: 1.5; stroke-linejoin: miter; stroke-linecap: square"/>
   </g>
   <g id="patch_5">
    <path d="M 38.86565 194.092096 
L 307.172001 194.092096 
" style="fill: none; stroke: #000000; stroke-width: 1.5; stroke-linejoin: miter; stroke-linecap: square"/>
   </g>
   <g id="patch_6">
    <path d="M 38.86565 29.339474 
L 307.172001 29.339474 
" style="fill: none; stroke: #000000; stroke-width: 1.5; stroke-linejoin: miter; stroke-linecap: square"/>
   </g>
   <g id="text_8">
    <!-- Memory Kernel $\tau_\Gamma/\tau_D=$0.5 -->
    <g transform="translate(53.115588 23.339474)scale(0.216 -0.216)">
     <defs>
      <path id="CMR17-4b" d="M 2362 2669 
L 3469 3771 
C 3699 3994 3942 4172 4301 4185 
L 4301 4352 
C 4173 4345 4013 4339 3885 4339 
C 3712 4339 3411 4339 3245 4352 
L 3245 4185 
C 3411 4172 3437 4057 3437 4013 
C 3437 3968 3411 3898 3386 3860 
L 1261 1739 
L 1261 3898 
C 1261 4185 1331 4185 1773 4185 
L 1773 4352 
C 1587 4339 1248 4339 1050 4339 
C 851 4339 512 4339 326 4352 
L 326 4185 
C 768 4185 838 4185 838 3898 
L 838 453 
C 838 166 768 166 326 166 
L 326 0 
C 512 12 851 12 1050 12 
C 1248 12 1587 12 1773 0 
L 1773 166 
C 1331 166 1261 166 1261 453 
L 1261 1580 
L 2080 2389 
L 3290 542 
C 3328 478 3373 395 3373 332 
C 3373 166 3194 166 3110 166 
L 3110 0 
C 3315 12 3610 12 3821 12 
C 3974 12 4237 12 4384 0 
L 4384 166 
C 4077 166 3981 204 3789 497 
L 2362 2669 
z
" transform="scale(0.015625)"/>
      <path id="CMR17-6e" d="M 2656 1954 
C 2656 2282 2592 2816 1837 2816 
C 1331 2816 1069 2424 973 2166 
L 966 2166 
L 966 2816 
L 211 2745 
L 211 2578 
C 589 2578 646 2540 646 2231 
L 646 443 
C 646 198 621 166 211 166 
L 211 0 
C 365 12 646 12 813 12 
C 979 12 1267 12 1421 0 
L 1421 166 
C 1011 166 986 192 986 443 
L 986 1678 
C 986 2269 1344 2713 1792 2713 
C 2266 2713 2317 2289 2317 1980 
L 2317 443 
C 2317 198 2291 166 1882 166 
L 1882 0 
C 2035 12 2317 12 2483 12 
C 2650 12 2938 12 3091 0 
L 3091 166 
C 2682 166 2656 192 2656 443 
L 2656 1954 
z
" transform="scale(0.015625)"/>
      <path id="CMR17-6c" d="M 979 4416 
L 218 4345 
L 218 4179 
C 595 4179 653 4141 653 3835 
L 653 439 
C 653 198 627 166 218 166 
L 218 0 
C 371 12 653 12 813 12 
C 979 12 1261 12 1414 0 
L 1414 166 
C 1005 166 979 191 979 439 
L 979 4416 
z
" transform="scale(0.015625)"/>
      <path id="CMR17-0" d="M 3315 4352 
L 326 4352 
L 326 4185 
C 768 4185 838 4185 838 3897 
L 838 453 
C 838 166 768 166 326 166 
L 326 0 
C 512 12 870 12 1069 12 
C 1331 12 1638 12 1901 0 
L 1901 166 
L 1760 166 
C 1274 166 1261 230 1261 460 
L 1261 3936 
C 1261 4153 1274 4185 1530 4185 
L 2234 4185 
C 3206 4185 3258 3738 3354 2939 
L 3469 2939 
L 3315 4352 
z
" transform="scale(0.015625)"/>
      <path id="CMR17-3d" d="M 4115 2048 
C 4211 2048 4307 2048 4307 2156 
C 4307 2272 4198 2272 4090 2272 
L 512 2272 
C 403 2272 294 2272 294 2156 
C 294 2048 390 2048 486 2048 
L 4115 2048 
z
M 4090 927 
C 4198 927 4307 927 4307 1043 
C 4307 1152 4211 1152 4115 1152 
L 486 1152 
C 390 1152 294 1152 294 1043 
C 294 927 403 927 512 927 
L 4090 927 
z
" transform="scale(0.015625)"/>
      <path id="CMR17-2e" d="M 1062 262 
C 1062 422 934 524 800 524 
C 672 524 538 422 538 262 
C 538 102 666 0 800 0 
C 928 0 1062 102 1062 262 
z
" transform="scale(0.015625)"/>
      <path id="CMR17-35" d="M 730 3750 
C 794 3724 1056 3641 1325 3641 
C 1920 3641 2246 3961 2432 4140 
C 2432 4191 2432 4224 2394 4224 
C 2387 4224 2374 4224 2323 4198 
C 2099 4102 1837 4032 1517 4032 
C 1325 4032 1037 4055 723 4191 
C 653 4224 640 4224 634 4224 
C 602 4224 595 4217 595 4090 
L 595 2231 
C 595 2113 595 2080 659 2080 
C 691 2080 704 2093 736 2139 
C 941 2435 1222 2560 1542 2560 
C 1766 2560 2246 2415 2246 1293 
C 2246 1087 2246 716 2054 422 
C 1894 159 1645 25 1370 25 
C 947 25 518 319 403 812 
C 429 806 480 793 506 793 
C 589 793 749 838 749 1036 
C 749 1209 627 1280 506 1280 
C 358 1280 262 1190 262 1011 
C 262 454 704 -128 1382 -128 
C 2042 -128 2669 441 2669 1267 
C 2669 2054 2170 2662 1549 2662 
C 1222 2662 947 2540 730 2304 
L 730 3750 
z
" transform="scale(0.015625)"/>
     </defs>
     <use xlink:href="#CMR17-4d" transform="scale(0.996264)"/>
     <use xlink:href="#CMR17-65" transform="translate(84.686941 0)scale(0.996264)"/>
     <use xlink:href="#CMR17-6d" transform="translate(125.172601 0)scale(0.996264)"/>
     <use xlink:href="#CMR17-6f" transform="translate(202.092191 0)scale(0.996264)"/>
     <use xlink:href="#CMR17-72" transform="translate(247.782668 0)scale(0.996264)"/>
     <use xlink:href="#CMR17-79" transform="translate(283.063436 0)scale(0.996264)"/>
     <use xlink:href="#CMR17-4b" transform="translate(361.432318 0)scale(0.996264)"/>
     <use xlink:href="#CMR17-65" transform="translate(433.107095 0)scale(0.996264)"/>
     <use xlink:href="#CMR17-72" transform="translate(473.592756 0)scale(0.996264)"/>
     <use xlink:href="#CMR17-6e" transform="translate(508.873524 0)scale(0.996264)"/>
     <use xlink:href="#CMR17-65" transform="translate(559.768893 0)scale(0.996264)"/>
     <use xlink:href="#CMR17-6c" transform="translate(600.254554 0)scale(0.996264)"/>
     <use xlink:href="#CMMI12-1c" transform="translate(655.201579 0)scale(0.996264)"/>
     <use xlink:href="#CMR17-0" transform="translate(697.565419 -14.943915)scale(0.697382)"/>
     <use xlink:href="#CMMI12-3d" transform="translate(738.230354 0)scale(0.996264)"/>
     <use xlink:href="#CMMI12-1c" transform="translate(787.005273 0)scale(0.996264)"/>
     <use xlink:href="#CMMI12-44" transform="translate(829.369114 -14.943915)scale(0.697382)"/>
     <use xlink:href="#CMR17-3d" transform="translate(916.133758 0)scale(0.996264)"/>
     <use xlink:href="#CMR17-30" transform="translate(987.848546 0)scale(0.996264)"/>
     <use xlink:href="#CMR17-2e" transform="translate(1033.539024 0)scale(0.996264)"/>
     <use xlink:href="#CMR17-35" transform="translate(1058.410082 0)scale(0.996264)"/>
    </g>
   </g>
   <g id="legend_1">
    <g id="patch_7">
     <path d="M 131.400164 86.738426 
L 295.972001 86.738426 
Q 299.172001 86.738426 299.172001 83.538426 
L 299.172001 40.539474 
Q 299.172001 37.339474 295.972001 37.339474 
L 131.400164 37.339474 
Q 128.200164 37.339474 128.200164 40.539474 
L 128.200164 83.538426 
Q 128.200164 86.738426 131.400164 86.738426 
z
" style="fill: #ffffff; opacity: 0.8; stroke: #cccccc; stroke-linejoin: miter"/>
    </g>
    <g id="line2d_9">
     <path d="M 134.600164 49.339474 
L 150.600164 49.339474 
L 166.600164 49.339474 
" style="fill: none; stroke: #1f77b4; stroke-width: 1.5; stroke-linecap: square"/>
    </g>
    <g id="text_9">
     <!-- Extracted kernel -->
     <g transform="translate(179.400164 54.939474)scale(0.16 -0.16)">
      <defs>
       <path id="CMR17-45" d="M 3885 1614 
L 3770 1614 
C 3629 676 3546 166 2419 166 
L 1530 166 
C 1274 166 1261 198 1261 415 
L 1261 2176 
L 1862 2176 
C 2464 2176 2522 1959 2522 1429 
L 2637 1429 
L 2637 3086 
L 2522 3086 
C 2522 2558 2464 2342 1862 2342 
L 1261 2342 
L 1261 3924 
C 1261 4141 1274 4172 1530 4172 
L 2406 4172 
C 3398 4172 3514 3778 3603 2933 
L 3718 2933 
L 3565 4339 
L 326 4339 
L 326 4172 
C 768 4172 838 4172 838 3886 
L 838 453 
C 838 166 768 166 326 166 
L 326 0 
L 3654 0 
L 3885 1614 
z
" transform="scale(0.015625)"/>
       <path id="CMR17-78" d="M 1664 1491 
C 1856 1740 2074 2022 2253 2233 
C 2464 2476 2707 2579 2989 2585 
L 2989 2752 
C 2880 2745 2656 2739 2541 2739 
C 2368 2739 2170 2739 2022 2752 
L 2022 2585 
C 2112 2572 2163 2508 2163 2419 
C 2163 2304 2099 2233 2067 2188 
L 1594 1587 
L 1030 2323 
C 973 2393 973 2406 973 2438 
C 973 2515 1037 2579 1146 2585 
L 1146 2752 
C 992 2739 717 2739 557 2739 
C 384 2739 179 2739 38 2752 
L 38 2585 
C 384 2585 461 2560 614 2368 
L 1350 1414 
C 1363 1401 1395 1363 1395 1344 
C 1395 1318 838 633 768 544 
C 480 198 179 172 6 166 
L 6 0 
C 115 6 339 12 454 12 
C 582 12 864 12 979 0 
L 979 166 
C 941 172 838 185 838 332 
C 838 448 890 518 947 595 
L 1478 1248 
L 2035 524 
C 2086 454 2163 358 2163 313 
C 2163 224 2086 172 1984 166 
L 1984 0 
C 2138 12 2413 12 2573 12 
C 2746 12 2950 12 3091 0 
L 3091 166 
C 2771 166 2675 179 2522 377 
L 1664 1491 
z
" transform="scale(0.015625)"/>
       <path id="CMR17-74" d="M 966 2585 
L 1862 2585 
L 1862 2752 
L 966 2752 
L 966 3968 
L 851 3968 
C 838 3292 614 2700 70 2687 
L 70 2585 
L 627 2585 
L 627 778 
C 627 655 627 -64 1370 -64 
C 1747 -64 1965 308 1965 784 
L 1965 1151 
L 1850 1151 
L 1850 790 
C 1850 347 1677 51 1408 51 
C 1222 51 966 179 966 765 
L 966 2585 
z
" transform="scale(0.015625)"/>
       <path id="CMR17-61" d="M 2304 1656 
C 2304 2048 2304 2275 2035 2534 
C 1798 2751 1523 2816 1306 2816 
C 800 2816 435 2408 435 1977 
C 435 1740 627 1728 666 1728 
C 749 1728 896 1779 896 1958 
C 896 2118 774 2188 666 2188 
C 640 2188 608 2182 589 2176 
C 723 2594 1069 2713 1293 2713 
C 1613 2713 1965 2421 1965 1875 
L 1965 1632 
C 1587 1619 1133 1568 774 1373 
C 371 1147 256 822 256 576 
C 256 77 832 -64 1171 -64 
C 1523 -64 1850 135 1990 505 
C 2003 219 2182 -39 2464 -39 
C 2598 -39 2938 51 2938 563 
L 2938 926 
L 2822 926 
L 2822 557 
C 2822 161 2650 109 2566 109 
C 2304 109 2304 446 2304 732 
L 2304 1656 
z
M 1965 887 
C 1965 323 1568 38 1216 38 
C 896 38 646 278 646 576 
C 646 771 730 1114 1101 1322 
C 1408 1497 1760 1523 1965 1536 
L 1965 887 
z
" transform="scale(0.015625)"/>
       <path id="CMR17-63" d="M 2234 2240 
C 2112 2240 1933 2240 1933 2015 
C 1933 1836 2080 1785 2163 1785 
C 2208 1785 2394 1804 2394 2028 
C 2394 2476 1958 2816 1466 2816 
C 787 2816 211 2201 211 1379 
C 211 521 813 -64 1466 -64 
C 2259 -64 2458 676 2458 747 
C 2458 773 2451 792 2406 792 
C 2362 792 2355 786 2330 702 
C 2163 180 1798 51 1523 51 
C 1114 51 621 431 621 1385 
C 621 2358 1094 2700 1472 2700 
C 1722 2700 2093 2582 2234 2240 
z
" transform="scale(0.015625)"/>
       <path id="CMR17-64" d="M 1869 4345 
L 1869 4179 
C 2246 4179 2304 4141 2304 3843 
L 2304 2371 
C 2278 2403 2016 2816 1498 2816 
C 845 2816 211 2228 211 1376 
C 211 529 806 -64 1434 -64 
C 1978 -64 2259 361 2291 406 
L 2291 -64 
L 3066 -13 
L 3066 154 
C 2688 154 2630 193 2630 503 
L 2630 4416 
L 1869 4345 
z
M 2291 762 
C 2291 568 2176 393 2029 264 
C 1811 70 1594 38 1472 38 
C 1286 38 621 135 621 1369 
C 621 2636 1363 2713 1530 2713 
C 1824 2713 2061 2545 2208 2313 
C 2291 2177 2291 2157 2291 2041 
L 2291 762 
z
" transform="scale(0.015625)"/>
       <path id="CMR17-6b" d="M 1670 1679 
C 1664 1692 1632 1730 1632 1749 
C 1632 1762 2086 2175 2144 2226 
C 2509 2532 2739 2563 2906 2570 
L 2906 2735 
C 2867 2735 2854 2735 2848 2729 
L 2534 2722 
C 2355 2722 2080 2722 1907 2735 
L 1907 2570 
C 1997 2563 2061 2513 2061 2423 
C 2061 2296 1933 2175 1926 2175 
L 960 1298 
L 960 4416 
L 198 4345 
L 198 4179 
C 576 4179 634 4141 634 3835 
L 634 439 
C 634 198 608 166 198 166 
L 198 0 
C 352 12 634 12 794 12 
C 954 12 1235 12 1389 0 
L 1389 166 
C 979 166 954 191 954 439 
L 954 1139 
L 1395 1540 
L 2042 586 
C 2118 471 2182 382 2182 299 
C 2182 185 2067 166 1990 166 
L 1990 0 
C 2144 12 2419 12 2579 12 
C 2694 12 2931 6 3040 0 
L 3040 166 
C 2739 166 2669 223 2477 503 
L 1670 1679 
z
" transform="scale(0.015625)"/>
      </defs>
      <use xlink:href="#CMR17-45" transform="scale(0.996264)"/>
      <use xlink:href="#CMR17-78" transform="translate(62.586301 0)scale(0.996264)"/>
      <use xlink:href="#CMR17-74" transform="translate(110.879216 0)scale(0.996264)"/>
      <use xlink:href="#CMR17-72" transform="translate(146.159984 0)scale(0.996264)"/>
      <use xlink:href="#CMR17-61" transform="translate(181.440752 0)scale(0.996264)"/>
      <use xlink:href="#CMR17-63" transform="translate(227.131229 0)scale(0.996264)"/>
      <use xlink:href="#CMR17-74" transform="translate(267.61689 0)scale(0.996264)"/>
      <use xlink:href="#CMR17-65" transform="translate(302.897657 0)scale(0.996264)"/>
      <use xlink:href="#CMR17-64" transform="translate(343.383318 0)scale(0.996264)"/>
      <use xlink:href="#CMR17-6b" transform="translate(424.354654 0)scale(0.996264)"/>
      <use xlink:href="#CMR17-65" transform="translate(470.045116 0)scale(0.996264)"/>
      <use xlink:href="#CMR17-72" transform="translate(510.530776 0)scale(0.996264)"/>
      <use xlink:href="#CMR17-6e" transform="translate(545.811544 0)scale(0.996264)"/>
      <use xlink:href="#CMR17-65" transform="translate(596.706914 0)scale(0.996264)"/>
      <use xlink:href="#CMR17-6c" transform="translate(637.192574 0)scale(0.996264)"/>
     </g>
    </g>
    <g id="line2d_10">
     <path d="M 134.600164 71.63895 
L 150.600164 71.63895 
L 166.600164 71.63895 
" style="fill: none; stroke-dasharray: 5.55,2.4; stroke-dashoffset: 0; stroke: #ff7f0e; stroke-width: 1.5"/>
    </g>
    <g id="text_10">
     <!-- Input kernel -->
     <g transform="translate(179.400164 77.23895)scale(0.16 -0.16)">
      <defs>
       <path id="CMR17-49" d="M 1261 3898 
C 1261 4185 1338 4185 1798 4185 
L 1798 4352 
C 1594 4339 1267 4339 1050 4339 
C 832 4339 506 4339 301 4352 
L 301 4185 
C 762 4185 838 4185 838 3898 
L 838 453 
C 838 166 762 166 301 166 
L 301 0 
C 506 12 832 12 1050 12 
C 1267 12 1594 12 1798 0 
L 1798 166 
C 1338 166 1261 166 1261 453 
L 1261 3898 
z
" transform="scale(0.015625)"/>
       <path id="CMR17-70" d="M 1408 -1114 
C 998 -1114 973 -1088 973 -834 
L 973 380 
C 1158 109 1427 -64 1766 -64 
C 2406 -64 3053 503 3053 1382 
C 3053 2196 2496 2816 1837 2816 
C 1453 2816 1139 2603 960 2345 
L 960 2816 
L 198 2745 
L 198 2577 
C 576 2577 634 2539 634 2228 
L 634 -834 
C 634 -1081 608 -1114 198 -1114 
L 198 -1280 
C 352 -1268 634 -1268 800 -1268 
C 966 -1268 1254 -1268 1408 -1280 
L 1408 -1114 
z
M 973 2015 
C 973 2106 973 2241 1222 2481 
C 1254 2506 1472 2700 1792 2700 
C 2259 2700 2643 2112 2643 1376 
C 2643 639 2234 38 1728 38 
C 1498 38 1248 148 1056 451 
C 973 594 973 632 973 736 
L 973 2015 
z
" transform="scale(0.015625)"/>
       <path id="CMR17-75" d="M 1882 2745 
L 1882 2579 
C 2259 2579 2317 2540 2317 2229 
L 2317 1053 
C 2317 510 2029 38 1555 38 
C 1030 38 986 355 986 691 
L 986 2816 
L 211 2745 
L 211 2579 
C 467 2579 640 2579 646 2320 
L 646 1079 
C 646 646 646 368 813 187 
C 896 103 1056 -64 1517 -64 
C 2061 -64 2272 400 2323 536 
L 2330 536 
L 2330 -64 
L 3091 -13 
L 3091 154 
C 2714 154 2656 193 2656 503 
L 2656 2816 
L 1882 2745 
z
" transform="scale(0.015625)"/>
      </defs>
      <use xlink:href="#CMR17-49" transform="scale(0.996264)"/>
      <use xlink:href="#CMR17-6e" transform="translate(32.638409 0)scale(0.996264)"/>
      <use xlink:href="#CMR17-70" transform="translate(83.533779 0)scale(0.996264)"/>
      <use xlink:href="#CMR17-75" transform="translate(134.429149 0)scale(0.996264)"/>
      <use xlink:href="#CMR17-74" transform="translate(185.324519 0)scale(0.996264)"/>
      <use xlink:href="#CMR17-6b" transform="translate(250.681253 0)scale(0.996264)"/>
      <use xlink:href="#CMR17-65" transform="translate(296.371715 0)scale(0.996264)"/>
      <use xlink:href="#CMR17-72" transform="translate(336.857375 0)scale(0.996264)"/>
      <use xlink:href="#CMR17-6e" transform="translate(372.138143 0)scale(0.996264)"/>
      <use xlink:href="#CMR17-65" transform="translate(423.033513 0)scale(0.996264)"/>
      <use xlink:href="#CMR17-6c" transform="translate(463.519173 0)scale(0.996264)"/>
     </g>
    </g>
   </g>
  </g>
 </g>
 <defs>
  <clipPath id="p64c62412b6">
   <rect x="38.86565" y="29.339474" width="268.306351" height="164.752622"/>
  </clipPath>
 </defs>
</svg>
